<svg width="38" height="30" viewBox="0 0 38 30" fill="none" xmlns="http://www.w3.org/2000/svg">
<g clip-path="url(#clip0_36_44)">
<path d="M12.9765 14.8305C17.0722 14.8305 20.3917 11.511 20.3917 7.41523C20.3917 3.31948 17.0722 7.62939e-06 12.9765 7.62939e-06C8.8807 7.62939e-06 5.56123 3.31948 5.56123 7.41523C5.56123 11.511 8.8807 14.8305 12.9765 14.8305ZM18.1671 16.6843H17.1997C15.9136 17.2752 14.4827 17.6112 12.9765 17.6112C11.4702 17.6112 10.0451 17.2752 8.75326 16.6843H7.7858C3.48729 16.6843 -0.000183105 20.1717 -0.000183105 24.4702V26.8802C-0.000183105 28.4154 1.24534 29.6609 2.78053 29.6609H23.1724C24.7076 29.6609 25.9531 28.4154 25.9531 26.8802V24.4702C25.9531 20.1717 22.4656 16.6843 18.1671 16.6843ZM36.879 9.24586L35.2685 7.61799C35.002 7.34571 34.5675 7.34571 34.2952 7.6122L28.224 13.6371L25.5881 10.9838C25.3216 10.7115 24.8872 10.7115 24.6149 10.978L22.987 12.5943C22.7147 12.8608 22.7147 13.2953 22.9812 13.5675L27.7142 18.3353C27.9807 18.6076 28.4152 18.6076 28.6875 18.3411L36.8732 10.2191C37.1397 9.94683 37.1454 9.51235 36.879 9.24586Z" fill="black"/>
</g>
<defs>
<clipPath id="clip0_36_44">
<rect width="37.0761" height="29.6609" fill="white"/>
</clipPath>
</defs>
</svg>
