<svg width="38" height="30" viewBox="0 0 38 30" fill="none" xmlns="http://www.w3.org/2000/svg">
<g id="user-edit" clip-path="url(#clip0_36_42)">
<path id="Vector" d="M12.9766 14.8304C17.0724 14.8304 20.3919 11.511 20.3919 7.41522C20.3919 3.31947 17.0724 0 12.9766 0C8.88089 0 5.56142 3.31947 5.56142 7.41522C5.56142 11.511 8.88089 14.8304 12.9766 14.8304ZM18.1673 16.6843H17.1998C15.9138 17.2752 14.4829 17.6112 12.9766 17.6112C11.4704 17.6112 10.0453 17.2752 8.75344 16.6843H7.78598C3.48747 16.6843 0 20.1717 0 24.4702V26.8802C0 28.4154 1.24553 29.6609 2.78071 29.6609H18.7061C18.567 29.267 18.5091 28.8499 18.5554 28.427L18.9494 24.8989L19.0189 24.2559L19.4765 23.7982L23.9546 19.3201C22.5353 17.7154 20.4788 16.6843 18.1673 16.6843ZM20.7916 25.1017L20.3977 28.6355C20.3339 29.2264 20.8321 29.7246 21.4172 29.6551L24.9453 29.2612L32.934 21.2724L28.7803 17.1187L20.7916 25.1017ZM36.6706 15.5778L34.475 13.3822C33.9362 12.8434 33.0557 12.8434 32.5169 13.3822L30.3271 15.572L30.0896 15.8095L34.2491 19.9632L36.6706 17.5416C37.2094 16.9971 37.2094 16.1223 36.6706 15.5778Z" fill="black"/>
</g>
<defs>
<clipPath id="clip0_36_42">
<rect width="37.0761" height="29.6609" fill="white"/>
</clipPath>
</defs>
</svg>
