<svg width="30" height="30" viewBox="0 0 30 30" fill="none" xmlns="http://www.w3.org/2000/svg">
<g id="search" clip-path="url(#clip0_36_48)">
<path id="Vector" d="M29.2554 25.6463L23.4796 19.8705C23.2189 19.6098 22.8655 19.465 22.4948 19.465H21.5505C23.1494 17.42 24.0995 14.8479 24.0995 12.0498C24.0995 5.39345 18.7061 3.05176e-05 12.0497 3.05176e-05C5.39342 3.05176e-05 0 5.39345 0 12.0498C0 18.7061 5.39342 24.0995 12.0497 24.0995C14.8478 24.0995 17.42 23.1494 19.465 21.5505V22.4948C19.465 22.8656 19.6098 23.2189 19.8705 23.4796L25.6462 29.2554C26.1908 29.8 27.0714 29.8 27.6101 29.2554L29.2496 27.6159C29.7941 27.0714 29.7941 26.1908 29.2554 25.6463ZM12.0497 19.465C7.95398 19.465 4.63451 16.1513 4.63451 12.0498C4.63451 7.95402 7.94819 4.63454 12.0497 4.63454C16.1455 4.63454 19.465 7.94822 19.465 12.0498C19.465 16.1455 16.1513 19.465 12.0497 19.465Z" fill="black"/>
</g>
<defs>
<clipPath id="clip0_36_48">
<rect width="29.6609" height="29.6609" fill="white"/>
</clipPath>
</defs>
</svg>
