<svg width="38" height="30" viewBox="0 0 38 30" fill="none" xmlns="http://www.w3.org/2000/svg">
<path id="Vector" d="M36.1492 12.0497H32.4416V8.34212C32.4416 7.83233 32.0245 7.41522 31.5147 7.41522H29.6609C29.1511 7.41522 28.734 7.83233 28.734 8.34212V12.0497H25.0264C24.5166 12.0497 24.0995 12.4668 24.0995 12.9766V14.8304C24.0995 15.3402 24.5166 15.7573 25.0264 15.7573H28.734V19.465C28.734 19.9748 29.1511 20.3919 29.6609 20.3919H31.5147C32.0245 20.3919 32.4416 19.9748 32.4416 19.465V15.7573H36.1492C36.659 15.7573 37.0761 15.3402 37.0761 14.8304V12.9766C37.0761 12.4668 36.659 12.0497 36.1492 12.0497ZM12.9766 14.8304C17.0724 14.8304 20.3919 11.511 20.3919 7.41522C20.3919 3.31947 17.0724 0 12.9766 0C8.88089 0 5.56142 3.31947 5.56142 7.41522C5.56142 11.511 8.88089 14.8304 12.9766 14.8304ZM18.1673 16.6842H17.1998C15.9138 17.2752 14.4829 17.6112 12.9766 17.6112C11.4704 17.6112 10.0453 17.2752 8.75344 16.6842H7.78598C3.48747 16.6842 0 20.1717 0 24.4702V26.8802C0 28.4154 1.24553 29.6609 2.78071 29.6609H23.1726C24.7078 29.6609 25.9533 28.4154 25.9533 26.8802V24.4702C25.9533 20.1717 22.4658 16.6842 18.1673 16.6842Z" fill="black"/>
</svg>
