<svg width="50" height="41" viewBox="0 0 50 41" fill="none" xmlns="http://www.w3.org/2000/svg">
<g clip-path="url(#clip0_36_46)" filter="url(#filter0_i_36_46)">
<path d="M49.5391 18.9201L44.4444 14.7696V3.84375C44.4444 3.50394 44.2981 3.17805 44.0376 2.93777C43.7772 2.69749 43.4239 2.5625 43.0556 2.5625H37.5C37.1316 2.5625 36.7784 2.69749 36.5179 2.93777C36.2574 3.17805 36.1111 3.50394 36.1111 3.84375V7.98139L27.3247 0.824805C26.7795 0.36916 25.7404 0 25 0C24.2595 0 23.224 0.36916 22.6788 0.824805L0.456597 18.9225C0.182797 19.1777 0.0202848 19.5168 0 19.8754C0.0177404 20.1886 0.141963 20.4887 0.355035 20.733L2.21354 22.6381C2.50319 22.8779 2.86798 23.0265 3.25521 23.0625C3.59092 23.0315 3.91143 22.9179 4.18316 22.7334L5.56337 21.6123V38.4375C5.56337 39.1171 5.85603 39.7689 6.37696 40.2495C6.89789 40.73 7.60443 41 8.34115 41H41.6667C42.4034 41 43.1099 40.73 43.6309 40.2495C44.1518 39.7689 44.4444 39.1171 44.4444 38.4375V21.6115L45.8255 22.7326C46.0984 22.9168 46.4196 23.0307 46.7561 23.0625C47.1398 23.0255 47.5008 22.8765 47.7865 22.6373L49.645 20.7306C49.8444 20.4798 49.9671 20.1842 50 19.8746C49.9601 19.5193 49.7987 19.185 49.5391 18.9201ZM25 14.0938C26.0988 14.0938 27.1729 14.3943 28.0865 14.9575C29.0001 15.5206 29.7122 16.321 30.1327 17.2575C30.5532 18.194 30.6632 19.2244 30.4488 20.2186C30.2344 21.2127 29.7053 22.1259 28.9284 22.8427C28.1514 23.5594 27.1615 24.0475 26.0838 24.2453C25.0062 24.443 23.8891 24.3415 22.874 23.9536C21.8588 23.5657 20.9912 22.9088 20.3807 22.066C19.7703 21.2232 19.4444 20.2324 19.4444 19.2188C19.4444 17.8595 20.0298 16.556 21.0716 15.5948C22.1135 14.6337 23.5266 14.0938 25 14.0938ZM34.7222 35.875H15.2778C14.9094 35.875 14.5562 35.74 14.2957 35.4997C14.0352 35.2594 13.8889 34.9336 13.8889 34.5938C13.8889 32.5549 14.7669 30.5996 16.3297 29.1579C17.8925 27.7162 20.0121 26.9062 22.2222 26.9062H27.7778C29.9879 26.9062 32.1075 27.7162 33.6703 29.1579C35.2331 30.5996 36.1111 32.5549 36.1111 34.5938C36.1111 34.9336 35.9648 35.2594 35.7043 35.4997C35.4438 35.74 35.0906 35.875 34.7222 35.875Z" fill="white"/>
</g>
<defs>
<filter id="filter0_i_36_46" x="0" y="0" width="50" height="45" filterUnits="userSpaceOnUse" color-interpolation-filters="sRGB">
<feFlood flood-opacity="0" result="BackgroundImageFix"/>
<feBlend mode="normal" in="SourceGraphic" in2="BackgroundImageFix" result="shape"/>
<feColorMatrix in="SourceAlpha" type="matrix" values="0 0 0 0 0 0 0 0 0 0 0 0 0 0 0 0 0 0 127 0" result="hardAlpha"/>
<feOffset dy="4"/>
<feGaussianBlur stdDeviation="2"/>
<feComposite in2="hardAlpha" operator="arithmetic" k2="-1" k3="1"/>
<feColorMatrix type="matrix" values="0 0 0 0 0 0 0 0 0 0 0 0 0 0 0 0 0 0 0.25 0"/>
<feBlend mode="normal" in2="shape" result="effect1_innerShadow_36_46"/>
</filter>
<clipPath id="clip0_36_46">
<rect width="50" height="41" fill="black"/>
</clipPath>
</defs>
</svg>